<?xml version="1.0" encoding="utf-8"?>
<!-- Generator: Adobe Illustrator 28.0.0, SVG Export Plug-In . SVG Version: 6.00 Build 0)  -->
<svg version="1.1" id="Layer_1" xmlns:mydata="http://www.w3.org/2000/svg"
	 xmlns="http://www.w3.org/2000/svg" xmlns:xlink="http://www.w3.org/1999/xlink" x="0px" y="0px" viewBox="0 0 258 258"
	 style="enable-background:new 0 0 258 258;" xml:space="preserve">
<style type="text/css">
	.st0{fill:#f2e8fa;}
	.st1{fill-rule:evenodd;clip-rule:evenodd;fill:#f2e8fa;}
</style>
<g>
	<g>
		<g>
			<path class="st0" d="M147.8,180.1C147.8,180.1,147.8,180.1,147.8,180.1C147.8,180.1,147.8,180.1,147.8,180.1L147.8,180.1z
				 M147.8,180.1c0-0.1-0.1-0.2-0.1-0.4c0.1,0.6,0.1,1.1,0.2,1.7c-0.9-2.3-1.9-4.5-2.9-6.5c-1.1-2-2.2-3.8-3.5-5.3
				c-1.3-1.5-2.7-2.8-4.1-3.8c-1.5-1-3-1.8-4.6-2.4c-3.2-1.3-6.5-2-9.9-2.7c-3.4-0.7-7-1.4-10.5-2.5c-3.6-1.1-7.1-2.5-10.6-4.7
				c-3.4-2.1-6.9-4.9-9.8-8.9c-1.5-2-2.7-4.4-3.7-7c-0.5-1.3-0.9-2.7-1.2-4.2c-0.3-1.4-0.5-2.9-0.6-4.4c-0.1-1.5-0.1-2.9,0-4.4
				c0.1-1.4,0.3-2.8,0.5-4.2c0.3-1.4,0.6-2.6,1-3.9c0.4-1.2,0.9-2.4,1.5-3.4c-0.9,5.2-0.9,10.4,0.2,14.9c0.3,1.1,0.6,2.2,1,3.1
				c0.4,1,0.8,1.9,1.3,2.8c1,1.7,2.1,3.2,3.4,4.6c1.3,1.3,2.7,2.5,4.1,3.5c0.7,0.5,1.5,1,2.2,1.4c0.4,0.2,0.8,0.4,1.2,0.7
				c0.4,0.2,0.8,0.4,1.2,0.6c3.1,1.6,6.4,2.8,9.7,3.8c3.3,1,6.8,1.9,10.3,3c3.5,1.1,7.1,2.4,10.6,4.6c1.7,1.1,3.5,2.5,5,4.2
				c1.6,1.7,3,3.7,4.2,6c0.1,0.3,0.3,0.5,0.4,0.8c-0.1-0.4-0.3-0.7-0.4-1.1l-0.8-1.7c-0.3-0.6-0.6-1.1-0.9-1.6
				c-0.1-0.1-0.1-0.3-0.2-0.4l-0.2-0.4l-0.5-0.8c-0.3-0.5-0.6-1-1-1.5c-0.2-0.2-0.3-0.5-0.5-0.7l-0.5-0.7l-0.5-0.7
				c-0.2-0.2-0.4-0.4-0.6-0.6c-0.4-0.4-0.7-0.8-1.1-1.2l-0.6-0.6c-0.2-0.2-0.4-0.4-0.6-0.5c-0.4-0.3-0.8-0.7-1.2-1
				c-1.6-1.3-3.4-2.5-5.1-3.6c-1.8-1.1-3.6-2.2-5.5-3.2c-3.7-2.1-7.5-4.2-11.3-6.8c-0.5-0.3-0.9-0.7-1.4-1c-0.5-0.3-0.9-0.7-1.4-1
				l-1.4-1.1c-0.5-0.4-0.9-0.7-1.4-1.1c-0.9-0.8-1.8-1.6-2.7-2.4c-0.4-0.4-0.9-0.9-1.3-1.3c-0.4-0.4-0.9-0.9-1.3-1.3l-1.3-1.4
				c-0.4-0.5-0.8-1-1.3-1.5c-0.9-1-1.6-2.1-2.5-3.2c-1.6-2.3-3-4.7-4.3-7.5L92,116c-0.1-0.4-0.3-0.7-0.4-1.1l-0.4-1.1
				c-0.1-0.4-0.3-0.7-0.4-1.1l-0.3-1.2c-0.1-0.4-0.2-0.8-0.3-1.2c-0.1-0.4-0.2-0.8-0.3-1.2l-0.1-0.6l-0.1-0.6
				c-0.6-3.3-0.9-6.7-0.6-10l0.1-1.2c0-0.4,0.1-0.8,0.2-1.2l0.1-0.6l0.1-0.6c0.1-0.4,0.1-0.8,0.2-1.2c0.3-1.5,0.7-3,1.2-4.4
				c0.5-1.4,1.1-2.7,1.7-4c0.6-1.2,1.3-2.4,2.1-3.4c-0.5,1.3-0.9,2.7-1.3,4.1c-0.4,1.4-0.6,2.8-0.9,4.2c-0.2,1.4-0.4,2.8-0.4,4.2
				c0,0.3,0,0.7,0,1l0,0.5l0,0.5c0,0.3,0,0.7,0,1l0.1,1c0.3,5.4,2,10.3,4.4,14.3c1.2,2,2.5,3.9,4,5.6c0.7,0.8,1.5,1.7,2.3,2.5
				c0.4,0.4,0.8,0.8,1.2,1.2l1.2,1.1c0.4,0.4,0.8,0.7,1.2,1.1c0.4,0.4,0.8,0.7,1.2,1.1c0.8,0.7,1.7,1.4,2.5,2.1
				c1.7,1.4,3.4,2.6,5.2,3.8c3.5,2.4,7.2,4.7,10.9,7.1c1.9,1.2,3.7,2.6,5.6,4c1.8,1.5,3.7,3.1,5.4,5c0.4,0.5,0.9,1,1.3,1.5
				c0.2,0.2,0.4,0.5,0.6,0.8l0.6,0.8c0.4,0.5,0.8,1.1,1.2,1.7c0.2,0.3,0.4,0.6,0.6,0.9l0.5,0.9l0.5,0.9c0.2,0.3,0.3,0.7,0.5,1
				c0.3,0.7,0.7,1.3,0.9,2l0.4,1l0.2,0.5c0.1,0.2,0.1,0.4,0.2,0.5c0.2,0.7,0.5,1.4,0.7,2.2c0.9,3,1.5,6,1.8,9.1
				c0.1,0.8,0.2,1.5,0.2,2.3l0.1,2.3c0,0.4,0,0.8,0,1.2l0,1.2C147.9,178.5,147.9,179.3,147.8,180.1L147.8,180.1z M130.5,152.3
				c0.2,0.1,0.3,0.2,0.5,0.3c-0.1-0.1-0.3-0.1-0.4-0.2L130.5,152.3z M158.8,175.9c1.3,1.6,2.8,2.5,4.5,2.6v2.9h-13.9l0-0.1
				c0-0.3-0.1-0.6-0.1-1l0-0.2c0-0.8,0-1.5,0-2.3l0-1.2c0-0.3,0-0.5,0-0.8l-0.1-2.8c0-0.5-0.1-1.1-0.1-1.6l-0.1-0.7
				c-0.4-3.4-1-6.5-1.9-9.4c-0.2-0.5-0.3-1-0.5-1.5l-0.3-0.9c0-0.1-0.1-0.3-0.2-0.4l-0.6-1.5c-0.2-0.6-0.5-1.2-0.8-1.7l-0.4-0.7
				c-0.1-0.2-0.2-0.5-0.4-0.7l-1.1-1.9c-0.1-0.2-0.3-0.5-0.4-0.7l-0.5-0.7c-0.3-0.4-0.6-0.9-0.9-1.3l-0.6-0.8
				c-0.2-0.3-0.5-0.6-0.7-0.9c-0.4-0.5-0.9-1-1.3-1.5c-1.6-1.7-3.3-3.3-5.6-5.1c-1.7-1.4-3.6-2.7-5.7-4.1c-1.5-1-3-2-4.5-2.9
				l-0.1-0.3h-0.3c-2.1-1.3-4.1-2.6-6-4c-1.6-1.1-3.4-2.4-5.2-3.8c-0.5-0.4-1-0.8-1.5-1.2c-0.3-0.3-0.6-0.5-0.9-0.8
				c-0.3-0.2-0.5-0.4-0.8-0.7l-0.8-0.7c-0.3-0.2-0.6-0.5-0.8-0.8l-1.2-1.2c-0.2-0.2-0.5-0.5-0.7-0.7c-0.1-0.1-0.3-0.3-0.4-0.5
				c-0.2-0.1-0.3-0.3-0.4-0.5V95c0-5.7-0.2-9.2-0.6-10.7c-0.4-1.5-1.2-2.6-2.2-3.5c-0.7-0.6-2-1-3.6-1.2l0-0.1h-0.7
				c-0.5,0-1.1-0.1-1.8-0.1v-2.9h29.7c7.7,0,13.4,0.9,17,2.6c3.6,1.8,6.5,5,8.8,9.7c2.3,4.7,3.4,10.2,3.4,16.6
				c0,7.7-1.7,14.1-5.1,19.2c-2.2,3.2-5.2,5.6-9.1,7.2l15.4,35.5C156.5,171.9,157.9,174.8,158.8,175.9L158.8,175.9z M135.9,119.1
				c1.2-3.4,1.9-7.9,1.9-13.4c0-8-1.1-13.9-3.4-17.7c-2.3-3.8-6-5.7-11-5.7h-5v45.9h2.7c4.4,0,7.6-0.7,9.8-2
				C133,124.9,134.7,122.5,135.9,119.1L135.9,119.1z M143.8,175.5c1,1.9,1.9,4,2.7,5.9h-3.4l-6.1-14.2c1.3,1,2.4,2,3.5,3.3
				C141.6,171.9,142.8,173.6,143.8,175.5z M118.9,173.7c0.4,1.5,1.2,2.6,2.2,3.5c1.1,0.9,3.1,1.3,6,1.3v2.9H94.4v-2.9
				c3,0,5-0.5,6-1.4c1.1-0.9,1.8-2.1,2.2-3.5c0.4-1.4,0.6-5,0.6-10.7v-7.1c2.6,1.4,5.5,2.5,8.7,3.5c2.1,0.7,4.3,1.2,6.3,1.6v2
				C118.3,168.7,118.5,172.2,118.9,173.7L118.9,173.7z M75.5,75.5c7-7,15-12.4,24.1-16.2c9.4-4,19.2-6,29.5-6c10.3,0,20.1,2,29.5,6
				c9.1,3.8,17.1,9.2,24.1,16.2c7,7,12.4,15,16.2,24.1c4,9.4,6,19.2,6,29.5c0,10.3-2,20.1-6,29.5c-3.8,9.1-9.2,17.1-16.2,24.1
				c-7,7-15,12.4-24.1,16.2c-9.4,4-19.2,6-29.5,6c-10.3,0-20.1-2-29.5-6c-9.1-3.8-17.1-9.2-24.1-16.2c-7-7-12.4-15-16.2-24.1
				c-4-9.4-6-19.2-6-29.5c0-10.3,2-20.1,6-29.5C63.1,90.5,68.5,82.4,75.5,75.5L75.5,75.5z M79.6,178.4c6.4,6.4,13.9,11.4,22.2,15
				c8.7,3.7,17.7,5.5,27.2,5.5c9.5,0,18.5-1.8,27.2-5.5c8.4-3.5,15.8-8.5,22.2-15c6.4-6.4,11.4-13.9,15-22.2
				c3.7-8.7,5.5-17.7,5.5-27.2c0-9.5-1.8-18.5-5.5-27.2c-3.5-8.4-8.5-15.8-15-22.2c-6.4-6.4-13.9-11.4-22.2-15
				c-8.7-3.7-17.7-5.5-27.2-5.5s-18.5,1.8-27.2,5.5c-8.4,3.5-15.8,8.5-22.2,15c-6.4,6.4-11.4,13.9-15,22.2
				c-3.7,8.7-5.5,17.7-5.5,27.2c0,9.5,1.8,18.5,5.5,27.2C68.1,164.6,73.1,172,79.6,178.4z"/>
		</g>
		<g>
			<path class="st0" d="M19.9,169.2l6.7-8.7c2.2,3.8,5.3,5,8.8,3.9c2.3-0.7,4.1-2.1,4.9-4.1c0.8-1.9,0.8-3.6-0.1-6.8l-1.9-6.6
				l-22.9,6.7l1.2,4.2l8.8-2.6l-7,8.6L19.9,169.2z M34,160.2c-2.4,0.7-3.9-0.4-4.8-3.7l-0.6-2.1l6.9-2l0.6,1.9
				C37.2,158.4,36.1,159.6,34,160.2L34,160.2z"/>
			<path class="st0" d="M33,194.5l3.6-2.2l-4.3-7.2l4.8-2.9l4.2,6.9l3.6-2.2l-4.2-6.9l4.8-2.9l4.3,7.2l3.6-2.2l-6.6-11l-20.4,12.3
				L33,194.5z"/>
			<path class="st0" d="M53.1,217.1l3-3l-6.9-6.7l17.4-4.9l2.8-2.8l-9.9-9.7l-3,3l6.1,6l-17.6,5l-2.6,2.7L53.1,217.1z"/>
			<path class="st0" d="M85.3,236.7l2.3-25.8l-3.1-1.6l-19.9,16.4l4.3,2.3l5.2-4.2l7.5,4l-0.6,6.6L85.3,236.7z M82.1,223.2l-4.5-2.4
				l5.6-5.2L82.1,223.2z"/>
			<path class="st0" d="M132.7,238.4l0.4-17l-4.4-0.1l-0.4,16.9c-0.1,2.1-0.8,3.1-2.2,3.1c-1.1,0-1.8-0.7-2.1-1.9l-4.4-0.1
				c0.3,4,3,6.2,6.5,6.2C130,245.6,132.6,242.9,132.7,238.4L132.7,238.4z"/>
			<path class="st0" d="M170.1,237.7l-15.8-20.5l-3.4,0.9l-3.5,25.6l4.7-1.3l1-6.6l8.2-2.2l4.1,5.3L170.1,237.7z M158.5,230.1
				l-4.9,1.3l0.6-7.6L158.5,230.1z"/>
			<path class="st0" d="M184.7,208.1l-2.2-3.6l-10.3,6.4l12.5,20.3l3.8-2.3l-5.1-8.3l6.3-3.9l-2.2-3.6l-6.3,3.9l-2.9-4.8
				L184.7,208.1z"/>
			<path class="st0" d="M221.1,199.9l-24.2-9.1l-2.4,2.5l10.5,23.6l3.3-3.5l-2.7-6.2l5.8-6.2l6.2,2.4L221.1,199.9z M207.3,199.4
				l-3.5,3.7l-3.5-6.8L207.3,199.4z"/>
			<path class="st0" d="M237.1,171.9l-10.7,2c0.9-4.3-0.6-7.2-4-8.8c-2.2-1-4.4-1.2-6.4-0.3c-1.9,0.8-3,2.2-4.4,5.1l-3,6.2
				l21.5,10.3l1.9-4l-8.2-4l10.9-1.7L237.1,171.9z M220.6,169.2c2.3,1.1,2.6,2.9,1.2,6l-0.9,2l-6.5-3.1l0.9-1.8
				C217,168.4,218.6,168.2,220.6,169.2z"/>
			<path class="st0" d="M242.8,153l-23.2-5.4l-1,4.3l23.2,5.4L242.8,153z"/>
		</g>
		<g>
			<path class="st1" d="M78.8,10.1c-15.4,6.5-29.1,15.7-41,27.6c-11.9,11.9-21.1,25.6-27.6,41C3.4,94.8,0,111.5,0,129
				c0,17.5,3.4,34.2,10.1,50.2c6.5,15.4,15.7,29.1,27.6,41c11.9,11.9,25.6,21.1,41,27.6c16,6.8,32.7,10.1,50.2,10.1
				c17.5,0,34.2-3.4,50.2-10.1c15.4-6.5,29.1-15.7,41-27.6c11.9-11.9,21.1-25.6,27.6-41c6.8-16,10.1-32.7,10.1-50.2
				c0-17.5-3.4-34.2-10.1-50.2c-6.5-15.4-15.7-29.1-27.6-41c-11.9-11.9-25.6-21.1-41-27.6C163.2,3.4,146.5,0,129,0
				C111.5,0,94.8,3.4,78.8,10.1L78.8,10.1z M132.5,12.8l0.4,17c0.1,4.5-2.3,7.3-6.3,7.4c-3.5,0.1-6.3-1.9-6.8-5.9l4.4-0.1
				c0.3,1.2,1,1.8,2.1,1.8c1.4,0,2.1-1.1,2-3.2l-0.4-16.9L132.5,12.8z M164,43.3l-3.5-25.6l-3.4-0.9l-15.7,20.5l4.7,1.3l4.1-5.3
				l8.2,2.2l0.9,6.6L164,43.3z M157.7,30.9l-4.9-1.3l4.3-6.3L157.7,30.9z M96.5,42.4l-20-16.4l-3.1,1.6l2.4,25.7l4.3-2.3l-0.5-6.7
				l7.5-4l5.1,4.3L96.5,42.4z M194.9,33.2l-2.2,3.6l-6.6-4l-2.9,4.8l6.3,3.9l-2.2,3.6l-6.3-3.9l-5.1,8.3l-3.8-2.3l12.5-20.3
				L194.9,33.2z M83.5,37.5L79,39.9l-1.1-7.6L83.5,37.5z M66.9,54.9l3,3L59.2,68.4l-2.6-2.7L51.9,48l-6.1,6l-3-3l9.9-9.7l2.8,2.8
				L60,61.6L66.9,54.9z M203.8,74.5l10.5-23.7l-2.4-2.5l-24.2,9.2L191,61l6.3-2.3l5.8,6.2l-2.7,6.1L203.8,74.5z M129,49.3
				c22,0,40.8,7.8,56.4,23.4c15.6,15.6,23.4,34.4,23.4,56.4c0,22-7.8,40.8-23.4,56.4c-15.6,15.6-34.4,23.4-56.4,23.4
				s-40.8-7.8-56.4-23.4C57.1,169.8,49.3,151,49.3,129l0,0c0-22,7.8-40.8,23.4-56.4C88.2,57.1,107,49.3,129,49.3L129,49.3z
				 M205,60.7l-3.5-3.7l7-3.1L205,60.7z M53.4,75.8l-3.6-2.2l-4.3,7.2l-4.8-2.9l4.2-6.9l-3.6-2.2L37,75.7l-4.8-2.9l4.3-7.2L33,63.4
				l-6.6,11l20.4,12.3L53.4,75.8z M220.7,86.8l-5.2,9.6l-2.4-4.9l5.5-9.6l-8.2,4l-1.9-4l21.5-10.3l3,6.2c1.4,2.9,1.7,4.7,1.2,6.6
				c-0.5,2.1-2,3.8-4.2,4.8C226.7,90.8,223.5,90.2,220.7,86.8z M222.7,82.4c1.5,3.1,3.1,3.9,5.4,2.8c1.9-0.9,2.8-2.3,1-6.1l-0.9-1.8
				l-6.5,3.1L222.7,82.4z M42.8,95.5l-10.3,3.7c0.2-4.4-1.8-7-5.4-8c-2.3-0.7-4.6-0.4-6.3,0.8c-1.7,1.1-2.6,2.6-3.5,5.8l-1.9,6.6
				l22.9,6.7l1.2-4.2l-8.8-2.6l10.5-3.5L42.8,95.5z M26.1,95.5c2.4,0.7,3.1,2.4,2.1,5.7l-0.6,2.1l-6.9-2l0.6-1.9
				C22.4,95.3,24,94.9,26.1,95.5z M219.5,110.3l23.2-5.4l-1-4.3l-23.2,5.4L219.5,110.3z M12.5,178.2c-6.5-15.3-9.8-31.3-9.9-47.9
				h44.1c0.3,22.2,8.3,41.1,24.1,56.9c16.1,16.1,35.5,24.1,58.2,24.1c22.7,0,42.1-8,58.2-24.1c15.8-15.8,23.8-34.7,24.1-56.9h44.1
				c-0.2,16.7-3.5,32.6-9.9,47.9c-6.4,15.1-15.4,28.5-27.1,40.2c-11.7,11.7-25,20.7-40.2,27.1c-15.7,6.6-32.1,9.9-49.2,9.9
				c-17.1,0-33.5-3.3-49.2-9.9c-15.1-6.4-28.5-15.4-40.2-27.1C28,206.7,18.9,193.3,12.5,178.2z"/>
		</g>
	</g>
</g>
</svg>
